<?xml version="1.0" encoding="utf-8"?>
<!-- Generator: Adobe Illustrator 23.0.0, SVG Export Plug-In . SVG Version: 6.00 Build 0)  -->
<svg version="1.1" id="Capa_1" xmlns="http://www.w3.org/2000/svg" xmlns:xlink="http://www.w3.org/1999/xlink" x="0px" y="0px"
	 viewBox="0 0 295.7 295.7" style="enable-background:new 0 0 295.7 295.7;" xml:space="preserve">
<style type="text/css">
	.st0{fill:#009A9A;}
</style>
<g id="XMLID_42_">
	<path id="XMLID_48_" class="st0" d="M277.2,75.7c-5.4-5.7-14.4-5.9-20.1-0.4l-4.9,4.7c4.6,8.1,6.7,17.7,5.2,27.6l-1.3,8l20.6-19.7
		C282.4,90.3,282.6,81.3,277.2,75.7z"/>
	<path id="XMLID_47_" class="st0" d="M128.3,177.5c-5.8,0.7-11.3,3.4-15.1,8.1L58,252.9c-8,9.7-6.6,24.1,3.2,32.1
		c4.2,3.5,9.4,5.2,14.5,5.2c6.6,0,13.1-2.8,17.7-8.3l46.3-56.5l24.5,5.5l-28.3-34C131.1,191.2,128.7,184.4,128.3,177.5z"/>
	<path id="XMLID_46_" class="st0" d="M218.9,78.3c-12.4-2-24.1,6.5-26.1,18.9l-8.8,54.7c0.9,0.9,1.9,1.6,2.7,2.6l36.2,43.5l15-93.6
		C239.8,92,231.4,80.2,218.9,78.3z"/>
	<path id="XMLID_45_" class="st0" d="M190,66.7c4.5,2.4,9.5,3.8,15,3.8c9.2,0,17.5-3.9,23.5-10.1c5.6-5.8,9.1-13.7,9.1-22.4
		c0-18-14.6-32.5-32.5-32.5c-18,0-32.5,14.6-32.5,32.5C172.4,50.5,179.6,61.3,190,66.7z"/>
	<path id="XMLID_44_" class="st0" d="M172.2,166.7c-5-6-13.9-6.9-20-1.8c-6,5-6.8,14-1.8,20l82,98.5c2.8,3.4,6.8,5.1,10.9,5.1
		c3.2,0,6.4-1.1,9.1-3.3c6-5,6.8-14,1.8-20L172.2,166.7z"/>
	<path id="XMLID_43_" class="st0" d="M156.5,76.4c0-39.2-31.8-70.9-71-70.9c-39.2,0-70.9,31.8-70.9,70.9c0,39.2,31.8,71,70.9,71
		C124.8,147.4,156.5,115.6,156.5,76.4z"/>
</g>
</svg>
