<?xml version="1.0" encoding="utf-8"?>
<!-- Generator: Adobe Illustrator 23.0.0, SVG Export Plug-In . SVG Version: 6.00 Build 0)  -->
<svg version="1.1" id="Capa_1" xmlns="http://www.w3.org/2000/svg" xmlns:xlink="http://www.w3.org/1999/xlink" x="0px" y="0px"
	 viewBox="0 0 512 512" style="enable-background:new 0 0 512 512;" xml:space="preserve">
<style type="text/css">
	.st0{fill:#009A9A;}
</style>
<g>
	<g>
		<path class="st0" d="M496,447h-15V337h15c8.3,0,15,6.7,15,15v80C511,440.3,504.3,447,496,447z"/>
		<g>
			<path class="st0" d="M406,272H46c-24.8,0-45,20.2-45,45v150c0,24.8,20.2,45,45,45h360c24.8,0,45-20.2,45-45V317
				C451,292.2,430.8,272,406,272z M406,452c0,8.3-6.7,15-15,15H61c-8.3,0-15-6.7-15-15V332c0-8.3,6.7-15,15-15h330
				c8.3,0,15,6.7,15,15V452z"/>
			<path class="st0" d="M142,347h36v90h-36V347z"/>
			<path class="st0" d="M76,347h36v90H76V347z"/>
			<path class="st0" d="M274,347h36v90h-36V347z"/>
			<path class="st0" d="M208,347h36v90h-36V347z"/>
			<path class="st0" d="M340,347h36v90h-36V347z"/>
		</g>
	</g>
	<path class="st0" d="M496,175h-15V65h15c8.3,0,15,6.7,15,15v80C511,168.3,504.3,175,496,175z"/>
	<path class="st0" d="M406,0H46C21.2,0,1,20.2,1,45v150c0,24.8,20.2,45,45,45h360c24.8,0,45-20.2,45-45V45C451,20.2,430.8,0,406,0z
		 M355,125.5c-3,7.7-11.7,11.5-19.4,8.5L241,97v68c0,5-2.4,9.6-6.5,12.4c-2.5,1.7-5.5,2.6-8.5,2.6c-1.8,0-3.7-0.3-5.5-1l-115-45
		c-7.7-3-11.5-11.7-8.5-19.4c3-7.7,11.7-11.5,19.4-8.5l94.5,37V75c0-5,2.4-9.6,6.5-12.4c4.1-2.8,9.3-3.4,13.9-1.6l115,45
		C354.2,109.1,358,117.8,355,125.5L355,125.5z"/>
</g>
</svg>
