<?xml version="1.0" encoding="utf-8"?>
<!-- Generator: Adobe Illustrator 23.0.0, SVG Export Plug-In . SVG Version: 6.00 Build 0)  -->
<svg version="1.1" id="Capa_1" xmlns="http://www.w3.org/2000/svg" xmlns:xlink="http://www.w3.org/1999/xlink" x="0px" y="0px"
	 viewBox="0 0 512 512" style="enable-background:new 0 0 512 512;" xml:space="preserve">
<style type="text/css">
	.st0{fill:#009A9A;}
</style>
<g>
	<g>
		<path class="st0" d="M506.4,424.5L296.4,44.3c-7.9-14.2-22.8-23-39-23h-2.7c-16.2,0-31.2,8.8-39,23L5.6,424.5
			c-3.6,6.6-5.6,14-5.6,21.6c0,24.6,20,44.6,44.6,44.6h422.8c24.6,0,44.6-20,44.6-44.6C512,438.6,510.1,431.1,506.4,424.5z
			 M338.8,294.9l-128,149.3c-2.1,2.4-5.1,3.7-8.1,3.7c-1.9,0-3.8-0.5-5.5-1.5c-4.5-2.7-6.3-8.2-4.4-13.1l36.8-92h-48.3
			c-3.5,0-6.7-1.7-8.7-4.5c-2-2.8-2.5-6.5-1.3-9.7l53.3-149.3c1.5-4.3,5.5-7.1,10-7.1h74.7c3.5,0,6.9,1.8,8.8,4.7
			c2,2.9,2.4,6.7,1.1,9.9l-36.8,92h48.3c4.2,0,8,2.4,9.7,6.2C342.1,287.3,341.5,291.8,338.8,294.9z"/>
	</g>
</g>
</svg>
