<?xml version="1.0" encoding="utf-8"?>
<!-- Generator: Adobe Illustrator 23.0.0, SVG Export Plug-In . SVG Version: 6.00 Build 0)  -->
<svg version="1.1" id="Layer_1" xmlns="http://www.w3.org/2000/svg" xmlns:xlink="http://www.w3.org/1999/xlink" x="0px" y="0px"
	 viewBox="0 0 512 425" style="enable-background:new 0 0 512 425;" xml:space="preserve">
<style type="text/css">
	.st0{fill:#009A9A;}
</style>
<title>Car Maintenance 2</title>
<path class="st0" d="M107,392.3v-36.4H61.4v36.4c0,2.2,1.3,4.4,3.6,4.4h37.8C105.1,396.5,106.9,394.6,107,392.3z"/>
<path class="st0" d="M291.5,221.4h-82c-10,0-21.5,8.5-24.6,18l-4.3,13.2h110.9c1.4,0.1,2.7,0.5,4,1v-32.5
	C294.2,221.5,292.9,221.6,291.5,221.4z"/>
<path class="st0" d="M65.7,118.4c-11.3,0-26.6,0-36.1,0c-12.7,0-23.1,5.7-25.9,14.2c-1,2.9-1.7,5.9-2.3,8.8l51.4-0.1L65.7,118.4z"/>
<circle class="st0" cx="86.5" cy="251.3" r="17.4"/>
<path class="st0" d="M419.1,213c0-60.7-47.9-110.6-106.7-115.1v230.2C371.2,323.6,419.1,273.7,419.1,213z"/>
<path class="st0" d="M331.1,382.2c0.3-3.7,3-6.7,6.6-7.5c19.6-4.4,38.3-12.3,55.2-23.3c3.1-2,7.1-1.8,9.9,0.6l30.4,25.2l34-34
	L442,312.6c-2.4-2.9-2.6-6.9-0.5-10c11.1-16.8,18.9-35.4,23.2-55.1c0.8-3.6,3.8-6.2,7.4-6.6l39.5-3.8v-48.3l-39.5-3.8
	c-3.6-0.4-6.6-3-7.4-6.6c-4.4-19.6-12.3-38.3-23.3-55.2c-2-3.1-1.7-7.1,0.6-9.9l25.2-30.4l-34-34l-30.4,25.2
	c-2.9,2.4-6.9,2.6-10,0.5c-16.7-11.1-35.4-19-55-23.2c-3.6-0.9-6.3-3.9-6.6-7.6l-3.8-39.7h-14.9v77c68.4,4.5,123.5,62,123.5,131.9
	s-55.1,127.5-123.5,131.9v77h14.9L331.1,382.2z"/>
<path class="st0" d="M295.5,150.1V26c-1.3,0.5-2.6,0.9-4,0.9H165.7c-28.2,0-46.1,28-54.2,44.8c-0.1,0.2-0.2,0.3-0.2,0.4l-43.6,77.3
	h223.9C292.9,149.4,294.2,149.6,295.5,150.1z"/>
<path class="st0" d="M53.2,166.2c-0.5,0-1-0.1-1.5-0.2C35,167,18.3,181.8,18.1,206.1L32.6,321c0,0.4,0.1,0.9,0.1,1.3
	c0,9.2,7.3,16.6,16.5,16.8h246.3v-38.2c-1.3,0.6-2.6,0.9-4,1H144.8c-4.6,0-8.4-3.8-8.4-8.4c0-4.6,3.8-8.4,8.4-8.4h146.7
	c1.4-0.1,2.7,0.1,4,0.5V269c-1.3,0.4-2.7,0.5-4,0.5H169c-4.5,0.1-8.3-3.5-8.4-8c0-1,0.1-1.9,0.4-2.8l7.9-24.4
	c5.4-16.5,23.2-29.7,40.6-29.7h82c1.4,0.2,2.8,0.6,4,1.3v-40.5c-1.3,0.5-2.6,0.8-4,0.8L53.2,166.2z M86.5,285.5
	c-18.9,0-34.2-15.3-34.2-34.2c0-18.9,15.3-34.2,34.2-34.2c18.9,0,34.2,15.3,34.2,34.2C120.7,270.1,105.4,285.5,86.5,285.5z"/>
</svg>
