<?xml version="1.0" encoding="utf-8"?>
<!-- Generator: Adobe Illustrator 23.0.0, SVG Export Plug-In . SVG Version: 6.00 Build 0)  -->
<svg version="1.1" id="Слой_1" xmlns="http://www.w3.org/2000/svg" xmlns:xlink="http://www.w3.org/1999/xlink" x="0px" y="0px"
	 viewBox="0 0 464 464" style="enable-background:new 0 0 464 464;" xml:space="preserve">
<style type="text/css">
	.st0{fill:#009A9A;}
	.st1{fill:#000105;}
</style>
<g id="Слой_2">
</g>
<path class="st0" d="M82.3,336l20.7-20.7l44.7,44.7L127,380.7L82.3,336z"/>
<path class="st0" d="M110.3,274.6c-1.7-1.7-3.9-2.6-6.3-2.6c-4.9,0-9,4-9,9c0,2.4,1,4.7,2.6,6.3l78.1,78.1c1.7,1.7,3.9,2.6,6.3,2.6
	c4.9,0,9-4,9-9c0-2.4-1-4.7-2.6-6.3L110.3,274.6z"/>
<path class="st0" d="M138.3,280l20.7-20.7l44.7,44.7L183,324.7L138.3,280z"/>
<path class="st0" d="M54.3,330.6c-1.7-1.7-3.9-2.6-6.3-2.6c-4.9,0-9,4-9,9c0,2.4,1,4.7,2.6,6.3l78.1,78.1c1.7,1.7,3.9,2.6,6.3,2.6
	c4.9,0,9-4,9-9c0-2.4-1-4.7-2.6-6.3L54.3,330.6z"/>
<path class="st0" d="M166.3,218.6c-1.7-1.7-3.9-2.6-6.3-2.6c-4.9,0-9,4-9,9c0,2.4,1,4.7,2.6,6.3l78.1,78.1c1.7,1.7,3.9,2.6,6.3,2.6
	c4.9,0,9-4,9-9c0-2.4-1-4.7-2.6-6.3L166.3,218.6z"/>
<path class="st0" d="M47,424c0,4.4-3.6,8-8,8s-8-3.6-8-8s3.6-8,8-8S47,419.6,47,424z"/>
<path class="st0" d="M8.3,410.1C2.3,416-1,424-1,432.4c0,17.4,14.2,31.6,31.6,31.6c8.4,0,16.4-3.3,22.3-9.2L91.7,416L47,371.3
	L8.3,410.1z M63,424c0,13.2-10.8,24-24,24s-24-10.8-24-24s10.8-24,24-24S63,410.8,63,424z"/>
<path class="st0" d="M250.3,168l20.7-20.7l44.7,44.7L295,212.7L250.3,168z"/>
<path class="st0" d="M431,40c0,4.4-3.6,8-8,8s-8-3.6-8-8s3.6-8,8-8S431,35.6,431,40z"/>
<path class="st0" d="M347.1,47.4c-4.8-4.8-11.1-7.4-17.8-7.4c-8.2,0-15.6,4-20.4,10.6l103.6,103.6c6.6-4.7,10.6-12.2,10.6-20.3
	c0-6.7-2.6-13.1-7.4-17.8L347.1,47.4z"/>
<path class="st0" d="M420.1,0c-11.5,0-22.2,4.5-30.3,12.6L362.3,40l60.7,60.7l27.4-27.4c8.1-8.1,12.6-18.9,12.6-30.3
	C463,19.2,443.8,0,420.1,0z M423,64c-13.2,0-24-10.8-24-24s10.8-24,24-24s24,10.8,24,24S436.2,64,423,64z"/>
<path class="st0" d="M222.3,162.6c-1.7-1.7-3.9-2.6-6.3-2.6c-4.9,0-9,4-9,9c0,2.4,1,4.7,2.6,6.3l78.1,78.1c1.7,1.7,3.9,2.6,6.3,2.6
	c4.9,0,9-4,9-9c0-2.4-1-4.7-2.6-6.3L222.3,162.6z"/>
<path class="st0" d="M194.3,224l20.7-20.7l44.7,44.7L239,268.7L194.3,224z"/>
<path class="st0" d="M265.2,118.9l78.9,78.9l54.6-34.8L300,64.3L265.2,118.9z"/>
<path id="XMLID_1468_" class="st0" d="M237.6,41.1l3.1-3.1c1.8-1.8,1.8-4.8,0-6.6c-1.8-1.8-4.8-1.8-6.6,0l-3.1,3.1l-3.1-3.1
	c-0.9-0.9-2.1-1.4-3.3-1.4h-5.1L195.7,6.3c-0.9-0.9-2.1-1.4-3.3-1.4H20.7c-9.2,0-16.7,7.5-16.7,16.7v87.2c0,9.2,7.5,16.7,16.7,16.7
	h40.5L34,152.8c-3.2,3.2-4.9,7.4-4.9,11.8c0,4.5,1.7,8.7,4.9,11.8l61.6,61.6c3.2,3.2,7.4,4.9,11.8,4.9s8.7-1.7,11.8-4.9l46.2-46.2
	c1.8-1.8,1.8-4.8,0-6.6c-1.8-1.8-4.8-1.8-6.6,0l-46.2,46.2c-1.4,1.4-3.3,2.2-5.3,2.2c-2,0-3.9-0.8-5.3-2.2l-61.6-61.6
	c-1.4-1.4-2.2-3.3-2.2-5.3c0-2,0.8-3.9,2.2-5.3L160.6,39.4h62l1.8,1.8l-10.8,10.8c-1.8-0.9-3.9-1.4-6-1.4c-7.7,0-14,6.3-14,14
	s6.3,14,14,14c7.7,0,14-6.3,14-14c0-2.2-0.5-4.2-1.4-6L231,47.7l1.8,1.8v62l-44.3,44.3c-1.8,1.8-1.8,4.8,0,6.6
	c1.8,1.8,4.8,1.8,6.6,0l45.7-45.7c0.9-0.9,1.4-2.1,1.4-3.3V47.6c0-1.2-0.5-2.4-1.4-3.3L237.6,41.1z M87.5,88.4
	c-2.6,0-4.7-2.1-4.7-4.7c0-2.6,2.1-4.7,4.7-4.7c2.6,0,4.7,2.1,4.7,4.7C92.1,86.3,90,88.4,87.5,88.4z M158.7,30.1
	c-1.2,0-2.4,0.5-3.3,1.4l-54.1,54.1c0.1-0.6,0.1-1.2,0.1-1.8c0-7.7-6.3-14-14-14c-7.7,0-14,6.3-14,14s6.3,14,14,14
	c0.6,0,1.2,0,1.8-0.1l-18.7,18.7H20.7c-4.1,0-7.4-3.3-7.4-7.4V21.7c0-4.1,3.3-7.4,7.4-7.4h169.8l15.8,15.8L158.7,30.1z M207.6,69.1
	c-2.6,0-4.7-2.1-4.7-4.7c0-2.6,2.1-4.7,4.7-4.7c1.1,0,2,0.4,2.8,1c0.1,0.2,0.3,0.3,0.4,0.5c0.1,0.1,0.3,0.3,0.5,0.4
	c0.6,0.8,1,1.8,1,2.8C212.3,67,210.2,69.1,207.6,69.1z"/>
<path id="XMLID_1527_" class="st0" d="M158.6,142.5c1.2,0,2.4-0.5,3.3-1.4l10.5-10.5c1.8-1.8,1.8-4.8,0-6.6c-1.8-1.8-4.8-1.8-6.6,0
	l-7.2,7.2l-23-23c-1.8-1.8-4.8-1.8-6.6,0c-1.8,1.8-1.8,4.8,0,6.6l26.3,26.3C156.2,142,157.4,142.5,158.6,142.5L158.6,142.5z"/>
<path id="XMLID_1528_" class="st0" d="M194.8,101.7c-1.8-1.8-4.8-1.8-6.6,0l-5.9,5.9l-6.6-6.6l5.9-5.9c1.8-1.8,1.8-4.8,0-6.6
	c-1.8-1.8-4.8-1.8-6.6,0l-5.9,5.9l-6.6-6.6l5.9-5.9c1.8-1.8,1.8-4.8,0-6.6c-1.8-1.8-4.8-1.8-6.6,0l-9.2,9.2
	c-0.9,0.9-1.4,2.1-1.4,3.3s0.5,2.4,1.4,3.3l26.3,26.3c0.9,0.9,2.1,1.4,3.3,1.4c1.2,0,2.4-0.5,3.3-1.4l9.2-9.2
	C196.6,106.5,196.6,103.5,194.8,101.7L194.8,101.7z"/>
<path id="XMLID_1531_" class="st0" d="M143.4,155.2c2.3,1.2,5.1,0.3,6.3-2c1.2-2.3,0.3-5.1-2-6.3l-34.9-17.8c-1.8-0.9-4-0.6-5.4,0.9
	c-1.4,1.4-1.8,3.6-0.9,5.4l17.8,34.9c0.8,1.6,2.5,2.5,4.1,2.5c0.7,0,1.4-0.2,2.1-0.5c2.3-1.2,3.2-4,2-6.3l-1.4-2.8l9.5-9.5
	L143.4,155.2z M126.6,154.5l-5.4-10.6l10.6,5.4L126.6,154.5z"/>
<path id="XMLID_1532_" class="st0" d="M98.8,191.1c-1.8,1.8-1.8,4.8,0,6.6c0.9,0.9,2.1,1.4,3.3,1.4s2.4-0.5,3.3-1.4l6.6-6.6
	c5.4-5.4,5.4-14.3,0-19.7c-5.2-5.2-13.4-5.4-18.9-0.8c-0.2,0.1-0.3,0.3-0.5,0.4l-0.3,0.3c-0.9,0.9-2,1.4-3.3,1.4s-2.4-0.5-3.3-1.4
	c-1.8-1.8-1.8-4.8,0-6.6l6.6-6.6c1.8-1.8,1.8-4.8,0-6.6c-1.8-1.8-4.8-1.8-6.6,0l-6.6,6.6c-5.4,5.4-5.4,14.3,0,19.7
	c2.6,2.6,6.1,4.1,9.9,4.1c3.7,0,7.2-1.4,9.9-4.1c0,0,0,0,0,0c1.8-1.8,4.8-1.8,6.6,0c0.9,0.9,1.4,2,1.4,3.3c0,1.2-0.5,2.4-1.4,3.3
	L98.8,191.1z"/>
<path id="XMLID_1533_" class="st0" d="M83.6,35c-2.2-1.3-5.1-0.5-6.3,1.8l-30,53.1c-1.3,2.2-0.5,5.1,1.8,6.3
	c0.7,0.4,1.5,0.6,2.3,0.6c1.6,0,3.2-0.9,4.1-2.4l30-53.1C86.7,39.1,85.9,36.2,83.6,35z"/>
<path id="XMLID_1536_" class="st0" d="M62.2,46.8c0-7.7-6.3-14-14-14s-14,6.3-14,14s6.3,14,14,14S62.2,54.5,62.2,46.8z M43.6,46.8
	c0-2.6,2.1-4.7,4.7-4.7s4.7,2.1,4.7,4.7c0,2.6-2.1,4.7-4.7,4.7S43.6,49.4,43.6,46.8z"/>
<path id="XMLID_1537_" class="st0" d="M176.9,169.3c-1.2,0-2.4,0.5-3.3,1.4c-0.9,0.9-1.4,2.1-1.4,3.3c0,1.2,0.5,2.4,1.4,3.3
	c0.9,0.9,2.1,1.4,3.3,1.4c1.2,0,2.4-0.5,3.3-1.4c0.9-0.9,1.4-2.1,1.4-3.3c0-1.2-0.5-2.4-1.4-3.3
	C179.4,169.8,178.2,169.3,176.9,169.3z"/>
<path class="st1" d="M426,32.7"/>
<g>
	<g>
		<path class="st0" d="M241.1,37.5c23.8-19.8,57.7-19.9,87-20.3c15.9-0.2,31.4,1,46.8,5.2c7.5,2,14.9,4.3,22.3,6.4
			c5.9,1.7,13.4,3,16.9,8.7c3,5,10.8,0.4,7.8-4.5c-3.6-6-9.5-8.9-16-11c-8-2.6-16.1-4.7-24.1-7c-17-4.9-34-7-51.7-6.8
			c-32.7,0.3-68.9,1.1-95.3,23C230.3,34.8,236.7,41.1,241.1,37.5L241.1,37.5z"/>
	</g>
</g>
</svg>
